<svg id="Layer_1" data-name="Layer 1" xmlns="http://www.w3.org/2000/svg" viewBox="0 0 256 256"><defs><style>.cls-1{fill:#545454;}.cls-2{fill:none;stroke:#545454;stroke-miterlimit:10;stroke-width:12px;}</style></defs><title>tabIconHome</title><path class="cls-1" d="M33.52,127.21h3.41l87.63-80.95a5,5,0,0,1,6.88,0l87.63,80.95h3.41c5.21,0,7.51-7.57,3.44-11.33L131.44,28.6a5,5,0,0,0-6.88,0L30.08,115.88C26,119.64,28.31,127.21,33.52,127.21Z"/><path class="cls-2" d="M63.19,136.17v88.77a4.11,4.11,0,0,0,4.32,3.86h121a4.11,4.11,0,0,0,4.32-3.86V136.17"/><rect class="cls-1" x="57.19" y="128.97" width="12" height="12" rx="4.44" ry="4.44"/><rect class="cls-1" x="186.81" y="130.17" width="12" height="12" rx="4.44" ry="4.44"/></svg>